<svg xmlns="http://www.w3.org/2000/svg" viewBox="0 0 384 512">
  <!-- Font Awesome Free 6.7.1, CC BY 4.0, Copyright 2024 Fonticons, Inc. -->
  <path d="M272 384c9.6-31.9 29.5-59.1 49.2-86.2 5.2-7.1 10.4-14.2 15.4-21.4C356.4 247.8 368 213.3 368 176 368 78.8 289.2 0 192 0S16 78.8 16 176c0 37.3 11.6 71.9 31.4 100.3 5 7.2 10.2 14.3 15.4 21.4 19.8 27.1 39.7 54.4 49.2 86.2h160zM192 512c44.2 0 80-35.8 80-80v-16H112v16c0 44.2 35.8 80 80 80zM112 176c0 8.8-7.2 16-16 16s-16-7.2-16-16c0-61.9 50.1-112 112-112 8.8 0 16 7.2 16 16s-7.2 16-16 16c-44.2 0-80 35.8-80 80z"/>
</svg>
